<svg xmlns="http://www.w3.org/2000/svg" width="20" height="20" viewBox="0 0 20 20">
  <path fill="rgb(214,133,56)" fill-rule="evenodd" d="M0 2.5C0 1.83695984.2633934 1.20106506.73223114.73223877 1.20107269.26339722 1.83696365 0 2.5 0h15.00003052c.66300201 0 1.29890442.26339722 1.7677002.73223877.46890258.4688263.7322998 1.10472107.7322998 1.76776123v15c0 .66299438-.26339722 1.29890442-.7322998 1.76779175C18.79893493 19.73660278 18.16303252 20 17.50003051 20H2.5c-.66303635 0-1.2989273-.26339722-1.76776886-.73220825C.2633934 18.79890442 0 18.16299438 0 17.5v-15zm10.8839264 4.00888062c-.23449708.23442077-.55239869.36611938-.88389588.36611938-.331604 0-.64949036-.1316986-.88391114-.36611938C8.88169098 6.27445984 8.75 5.95651245 8.75 5.625c0-.33151245.13169098-.64945984.36611938-.88388062.23442078-.23442077.55230713-.36611938.88391114-.36611938.33149719 0 .6493988.1316986.88389587.36611938.23440552.23442078.36610413.55236817.36610413.88388062 0 .33151245-.13169861.64945984-.36610413.88388062zm.2786026 1.72611999L8.30000304 8.59375l-.10250091.4750061.5625.10374451c.3675003.0874939.44000244.22000122.3600006.58624268l-.9225006 4.33496093c-.2425003 1.12129212.13124847 1.64880371 1.01000213 1.64880371.68122864 0 1.47252655-.31500244 1.83123017-.74751281l.1100006-.51998902c-.25.22000122-.61500549.30749512-.8575058.30749512-.34369659 0-.46869659-.24119568-.37999725-.66619873l1.251297-5.88130188z"/>
</svg>
