<svg xmlns="http://www.w3.org/2000/svg" width="20" height="20" viewBox="0 0 20 20">
  <path fill="rgb(214,133,56)" fill-rule="evenodd" d="M19.93560791 5.90309143c-.01119995-.8397522-.16870117-1.67115784-.46539307-2.45703125-.25720214-.66288757-.65020752-1.26489258-1.15371704-1.76756287-.50350952-.50268554-1.10650634-.894989-1.77050781-1.15182495-.7770996-.29121399-1.59799194-.44868469-2.42779541-.46568298C13.04980468.01330566 12.71099854 0 9.99890137 0 7.28677368 0 6.93914795 0 5.87850952.06098938 5.04904175.078125 4.22851562.23558044 3.4517975.52667236c-.66409302.2566681-1.2671814.64889527-1.77072144 1.15159607-.50354004.5027008-.8964386 1.10481262-1.15353394 1.76779175-.2922821.775177-.44966125 1.5945282-.46534729 2.4226532C.01443482 6.9364624 0 7.27464294 0 9.98225403c0 2.7076416 0 3.05354309.06219482 4.11354065.0166626.82940674.17326355 1.64759826.4653473 2.4249115.25752258.66279602.65071105 1.2645874 1.15441894 1.76708984s1.10687256.89460754 1.77095032 1.15119934c.7745819.30290222 1.59524536.4716034 2.42669677.49890137C6.9491272 19.9855957 7.28787231 20 10 20c2.71209717 0 3.05981445 0 4.12039185-.06210327.82980346-.01629639 1.65081787-.17340088 2.4277954-.46459961.66381837-.25709534 1.26672364-.64950562 1.77011109-1.15219116.50350952-.50260926.89660645-1.10450745 1.15420532-1.76721192.29208374-.77609253.4486084-1.59439087.46530152-2.42478943C19.9855957 13.0623932 20 12.7241974 20 10.01550293v-.03727722c-.00219727-2.6735077-.00250244-3.01893616-.06439209-4.07513428zm-4.60461426-.04656982c-.66308594 0-1.19729614-.53442383-1.19729614-1.19525147 0-.15689087.03100586-.3122406.09109497-.4571991.06021118-.14494323.14831543-.27664184.25939941-.3875885.1111145-.1109314.24310303-.19892883.38830567-.25897216.14511108-.06004334.30081177-.09094239.45788574-.09094239.15722656 0 .31280518.03089905.45800781.09094239.14520264.06004333.27709961.14804077.38821411.25897216.11108399.11094666.19927979.24264527.25939942.3875885.06008911.1449585.09109497.30030823.09109497.4571991 0 .66082764-.53530884 1.19525147-1.19610596 1.19525147zM9.99221802 15.1026001c-2.83651734 0-5.13438416-2.2940979-5.13438416-5.12586975 0-2.83180237 2.29786682-5.1258545 5.13438416-5.1258545 1.36178589 0 2.66766357.54003907 3.63058471 1.50132752.96289063.96128845 1.50378418 2.26506042 1.50378418 3.62452698 0 1.3594818-.54089355 2.66326904-1.50378418 3.6244812-.96292114.96128845-2.26879882 1.50138855-3.63058471 1.50138855zm3.33520508-5.12590027c0 1.8388977-1.49319458 3.32958984-3.33520508 3.32958984-1.84194947 0-3.33517456-1.49069214-3.33517456-3.32958984 0-1.83891296 1.4932251-3.32963562 3.33517456-3.32963562 1.8420105 0 3.33520508 1.49072266 3.33520508 3.32963562z"/>
</svg>
