<svg width="20" height="20" viewBox="0 0 20 20" fill="none" xmlns="http://www.w3.org/2000/svg">
<path d="M13.3274 9.97671C13.3274 11.8156 11.8342 13.3063 9.99221 13.3063C8.15024 13.3063 6.65703 11.8156 6.65703 9.97671C6.65703 8.1378 8.15024 6.64707 9.99221 6.64707C11.8342 6.64707 13.3274 8.1378 13.3274 9.97671Z" fill="#254500"/>
<path fill-rule="evenodd" clip-rule="evenodd" d="M19.4702 3.44606C19.7669 4.23193 19.9244 5.06334 19.9356 5.90309C19.9975 6.95929 19.9978 7.30472 20 9.97822L20 10.0155C20 12.7242 19.9856 13.0624 19.9378 14.1291C19.9211 14.9595 19.7646 15.7778 19.4725 16.5539C19.2149 17.2166 18.8218 17.8185 18.3183 18.3211C17.8149 18.8238 17.212 19.2162 16.5482 19.4733C15.7712 19.7645 14.9502 19.9216 14.1204 19.9379C13.0598 20 12.7121 20 10 20C7.28787 20 6.94913 19.9856 5.87961 19.9379C5.04817 19.9106 4.22749 19.7419 3.45291 19.439C2.78883 19.1824 2.18567 18.7903 1.68196 18.2878C1.17825 17.7853 0.785071 17.1835 0.527543 16.5207C0.235451 15.7434 0.078854 14.9252 0.0621946 14.0958C0 13.0358 0 12.6899 0 9.98226C0 7.27464 0.014438 6.93647 0.0621946 5.86872C0.07788 5.04059 0.235263 4.22124 0.527543 3.44606C0.784639 2.78308 1.17753 2.18097 1.68107 1.67827C2.18461 1.17557 2.78771 0.783335 3.4518 0.526666C4.22851 0.235578 5.04904 0.0781174 5.8785 0.0609825C6.93914 0 7.28676 0 9.99889 0C12.711 0 13.0498 0.0133053 14.1182 0.0609825C14.948 0.0779924 15.7689 0.235455 16.546 0.526666C17.21 0.783513 17.813 1.17581 18.3165 1.67849C18.82 2.18117 19.213 2.78318 19.4702 3.44606ZM4.85784 9.97672C4.85784 12.8085 7.15571 15.1026 9.99223 15.1026C11.354 15.1026 12.6599 14.5625 13.6228 13.6012C14.5857 12.64 15.1266 11.3362 15.1266 9.97672C15.1266 8.61726 14.5857 7.31348 13.6228 6.3522C12.6599 5.39091 11.354 4.85087 9.99223 4.85087C7.15571 4.85087 4.85784 7.14492 4.85784 9.97672ZM14.1337 4.66127C14.1337 5.3221 14.6679 5.85653 15.331 5.85653C15.9918 5.85653 16.5271 5.3221 16.5271 4.66127C16.5271 4.50438 16.4961 4.34903 16.436 4.20408C16.3759 4.05913 16.2877 3.92743 16.1766 3.81649C16.0655 3.70555 15.9336 3.61755 15.7884 3.55751C15.6432 3.49747 15.4876 3.46657 15.3304 3.46657C15.1733 3.46657 15.0176 3.49747 14.8725 3.55751C14.7273 3.61755 14.5953 3.70555 14.4842 3.81649C14.3731 3.92743 14.285 4.05913 14.2248 4.20408C14.1647 4.34903 14.1337 4.50438 14.1337 4.66127Z" fill="#254500"/>
</svg>
