<svg xmlns="http://www.w3.org/2000/svg" width="28" height="25" viewBox="0 0 28 25">
  <path fill="rgb(214,133,56)" fill-rule="evenodd" d="M26.59930038 5.55556011c.22629929.00008011.44919968.05458021.64959908.15883017.2004013.10425997.37240028.25515985.50119972.43977976.12900162.18443012.21110153.39715004.23910141.61993026.02809906.22277975.00119972.44898987-.0781002.65923977l-4.19989968 11.1110592c-.205801.54030036-.72800064.89999961-1.3118.89999961H11.19970036c-.27630043.00010109-.54640007-.08099937-.77640057-.2329998-.2298994-.15199852-.40939999-.36809921-.51575947-.62109947L3.26610994 2.77778006H0v-2.777774h3.26610994c.55287004-.00114639 1.09362984.16060195 1.55372.46473696.46009016.30413598.81878996.73695695 1.03061009 1.24359691l1.61556005 3.84722018h19.1333003zM13.99959946 22.91670036C13.99959946 24.0672989 13.05949974 25 11.89970016 25c-1.15980052 0-2.09996032-.93270111-2.09996032-2.08329964 0-1.15060043.9401598-2.08340072 2.09996032-2.08340072 1.15979958 0 2.0998993.93280029 2.0998993 2.08340072zm9.79980087 0C23.79940033 24.0672989 22.85920143 25 21.69939995 25c-1.15969849 0-2.0998993-.93270111-2.0998993-2.08329964 0-1.15060043.94020081-2.08340072 2.0998993-2.08340072 1.15980148 0 2.10000038.93280029 2.10000038 2.08340072z"/>
</svg>
