<svg width="28" height="25" viewBox="0 0 28 25" fill="none" xmlns="http://www.w3.org/2000/svg">
<path d="M27.7501 6.15417C27.6213 5.96955 27.4493 5.81865 27.2489 5.71439C27.0485 5.61014 26.8256 5.55564 26.5993 5.55556H7.466L5.85044 1.70834C5.63862 1.2017 5.27992 0.768879 4.81983 0.464743C4.35974 0.160608 3.81898 -0.00114033 3.26611 6.05172e-06H0V2.77778H3.26611L9.90754 18.5903C10.0139 18.8433 10.1934 19.0594 10.4233 19.2114C10.6533 19.3634 10.9234 19.4445 11.1997 19.4444H22.3994C22.9832 19.4444 23.5054 19.0847 23.7112 18.5444L27.9111 7.43334C27.9904 7.22309 28.0173 6.99688 27.9892 6.7741C27.9612 6.55132 27.8791 6.3386 27.7501 6.15417Z" fill="#D68538"/>
<path d="M11.8997 25C13.0595 25 13.9996 24.0673 13.9996 22.9167C13.9996 21.7661 13.0595 20.8333 11.8997 20.8333C10.7399 20.8333 9.79974 21.7661 9.79974 22.9167C9.79974 24.0673 10.7399 25 11.8997 25Z" fill="#D68538"/>
<path d="M21.6994 25C22.8592 25 23.7994 24.0673 23.7994 22.9167C23.7994 21.7661 22.8592 20.8333 21.6994 20.8333C20.5397 20.8333 19.5995 21.7661 19.5995 22.9167C19.5995 24.0673 20.5397 25 21.6994 25Z" fill="#D68538"/>
</svg>
