<svg width="20" height="20" viewBox="0 0 20 20" fill="none" xmlns="http://www.w3.org/2000/svg">
<path fill-rule="evenodd" clip-rule="evenodd" d="M19.9355 5.90311C19.9244 5.06332 19.767 4.23193 19.4702 3.44604C19.213 2.78317 18.8201 2.18118 18.3165 1.6785C17.813 1.17581 17.21 0.783508 16.546 0.526672C15.7689 0.235443 14.948 0.0780029 14.1182 0.0609741C13.0498 0.0133057 12.7111 0 9.9989 0C7.28674 0 6.93909 0 5.87854 0.0609741C5.04907 0.078125 4.22852 0.235565 3.45178 0.526672C2.78772 0.783325 2.18457 1.17557 1.68103 1.67828C1.17749 2.18097 0.784668 2.78308 0.527588 3.44604C0.235229 4.22122 0.0778809 5.04059 0.0621338 5.86871C0.0144043 6.93646 0 7.27466 0 9.98227C0 12.6899 0 13.0358 0.0621338 14.0958C0.0788574 14.9252 0.235474 15.7434 0.527588 16.5207C0.785034 17.1835 1.17822 17.7853 1.68201 18.2878C2.18567 18.7903 2.78882 19.1824 3.45288 19.439C4.22754 19.7419 5.04822 19.9106 5.87964 19.9379C6.9491 19.9856 7.28784 20 10 20C12.7122 20 13.0598 20 14.1204 19.9379C14.9502 19.9216 15.7711 19.7645 16.5482 19.4733C17.212 19.2162 17.8148 18.8238 18.3184 18.3211C18.8218 17.8185 19.2148 17.2166 19.4724 16.554C19.7645 15.7778 19.9211 14.9595 19.9377 14.1291C19.9856 13.0624 20 12.7242 20 10.0155V9.97821C19.9978 7.30472 19.9974 6.95929 19.9355 5.90311ZM9.97925 6.6391C10.3292 6.6391 10.6649 6.50009 10.9124 6.25262C11.1598 6.00516 11.2988 5.66953 11.2988 5.31955C11.2988 4.96957 11.1598 4.63394 10.9124 4.38647C10.6649 4.13904 10.3292 4 9.97925 4C9.62927 4 9.2937 4.13904 9.04614 4.38647C8.79871 4.63394 8.65967 4.96957 8.65967 5.31955C8.65967 5.66953 8.79871 6.00516 9.04614 6.25262C9.2937 6.50009 9.62927 6.6391 9.97925 6.6391ZM11.2064 8.07477L8.18469 8.45349L8.07642 8.95493L8.67029 9.06445C9.05823 9.1568 9.13477 9.29669 9.05029 9.68332L8.07642 14.2595C7.82043 15.4431 8.21497 16 9.1427 16C9.86182 16 10.6971 15.6675 11.0758 15.2109L11.1919 14.662C10.928 14.8942 10.5427 14.9866 10.2867 14.9866C9.92383 14.9866 9.79187 14.7319 9.88562 14.2833L11.2064 8.07477Z" fill="#254500"/>
</svg>
