<svg width="20" height="20" viewBox="0 0 20 20" fill="none" xmlns="http://www.w3.org/2000/svg">
<path fill-rule="evenodd" clip-rule="evenodd" d="M19.9355 5.90311C19.9244 5.06332 19.767 4.23193 19.4702 3.44604C19.213 2.78317 18.8201 2.18118 18.3165 1.6785C17.813 1.17581 17.21 0.783508 16.546 0.526672C15.7689 0.235443 14.948 0.0780029 14.1182 0.0609741C13.0498 0.0133057 12.7111 0 9.9989 0C7.28674 0 6.93909 0 5.87854 0.0609741C5.04907 0.078125 4.22852 0.235565 3.45178 0.526672C2.78772 0.783325 2.18457 1.17557 1.68103 1.67828C1.17749 2.18097 0.784668 2.78308 0.527588 3.44604C0.235229 4.22122 0.0778809 5.04059 0.0621338 5.86871C0.0144043 6.93646 0 7.27466 0 9.98227C0 12.6899 0 13.0358 0.0621338 14.0958C0.0788574 14.9252 0.235474 15.7434 0.527588 16.5207C0.785034 17.1835 1.17822 17.7853 1.68201 18.2878C2.18567 18.7903 2.78882 19.1824 3.45288 19.439C4.22754 19.7419 5.04822 19.9106 5.87964 19.9379C6.9491 19.9856 7.28784 20 10 20C12.7122 20 13.0597 20 14.1204 19.9379C14.9502 19.9216 15.7711 19.7645 16.5482 19.4733C17.212 19.2162 17.8148 18.8238 18.3184 18.3211C18.8218 17.8185 19.2148 17.2166 19.4724 16.554C19.7645 15.7778 19.9211 14.9595 19.9377 14.1291C19.9856 13.0624 20 12.7242 20 10.0155V9.97821C19.9978 7.30472 19.9974 6.95929 19.9355 5.90311ZM10.8978 10.5351V16H8.76929V10.5311H7V8.39148H8.76538V6.82123C8.76538 4.99493 9.84387 4.00012 11.4146 4.00012C11.9441 3.99799 12.4734 4.02625 13 4.08478V5.99243H11.9177C11.0636 5.99243 10.8978 6.41516 10.8978 7.03259V8.39548H12.939L12.6748 10.5351H10.8978Z" fill="#254500"/>
</svg>
