<svg xmlns="http://www.w3.org/2000/svg" width="20" height="20" viewBox="0 0 20 20">
  <path fill="rgb(37,69,0)" fill-rule="evenodd" d="M0 2.5C0 1.83695996.26339304 1.20106995.73223197.73223299 1.20107197.263392 1.8369621 0 2.50000191 0h15.00003051c.66300011 0 1.2988987.263392 1.7677002.73223299.46889877.46883696.7322998 1.10472697.7322998 1.76776701v15c0 .6630001-.26340103 1.2989006-.7322998 1.76779938C18.79893112 19.73660088 18.16303253 20 17.50003242 20H2.50000191c-.6630398 0-1.29892993-.26339912-1.76776994-.73220062C.26339304 18.7989006 0 18.1630001 0 17.5v-15zm10.88393211 4.00887966c-.23449993.2344203-.55240059.36612034-.88389969.36612034-.33160018 0-.64949035-.13170004-.88391017-.36612034C8.88169193 6.27445984 8.7500019 5.95652008 8.7500019 5.625s.13169002-.64945984.36612034-.88388014C9.35054207 4.50670004 9.66843224 4.375 10.00003242 4.375c.3314991 0 .64939976.13170004.8838997.36611986.23439979.2344203.3661003.55236006.3661003.88388014s-.13170051.64945984-.3661003.88387966zm.27859974 1.72612L8.3000021 8.59375l-.10249996.47499943.5625.10375023c.36749935.08749962.43999958.22000026.35999965.5862503l-.92249965 4.3349495c-.24249983 1.1213007.13124942 1.64880085 1.01000023 1.64880085.68122959 0 1.4725294-.31500054 1.8312292-.74750042l.11000062-.52000046c-.25.22000026-.61500073.30749988-.85750008.30749988-.34370041 0-.46870041-.24119949-.38000012-.66619968l1.25129986-5.88129997z"/>
</svg>
