<svg xmlns="http://www.w3.org/2000/svg" width="20" height="20" viewBox="0 0 20 20">
  <path fill="rgb(214,133,56)" fill-rule="evenodd" d="M19.47019958 3.44604492c.29679871.78588867.45420838 1.61727905.46530152 2.45706177.0619049 1.05618286.06230163 1.40161133.0644989 4.07510376v.03729248c0 2.70869446-.0144043 3.04689026-.06230164 4.11360168-.01660156.83039856-.17320251 1.6486969-.4653015 2.42489624-.25759889.66259766-.650589 1.26449585-1.1539917 1.7671051-.50360108.50268555-1.10639954.89509583-1.77020265 1.15219117-.7770996.29119873-1.5980072.44830322-2.4277954.4645996C13.05969237 20 12.71220397 20 10 20c-2.7121582 0-3.05090332-.0144043-4.12036133-.06210327-.8314209-.02729798-1.6520996-.19599915-2.42675781-.49890137-.6640625-.2565918-1.26721191-.6486969-1.77087402-1.15119934-.50378418-.50250244-.89697266-1.10429382-1.15441895-1.76708984-.29211426-.77731324-.44873047-1.59550476-.4654541-2.4249115C0 13.03579712 0 12.68989563 0 9.98226928 0 7.2746582.0144043 6.9364624.06213379 5.86871339c.01574707-.828125.1730957-1.64749146.4654541-2.42266846.25708008-.66296387.64990234-1.26507568 1.15344238-1.76776123.50354004-.50271606 1.10668946-.8949585 1.77075196-1.15161133C4.22851563.2355652 5.04907227.078125 5.87854003.06097412 6.93908692 0 7.28674317 0 9.99890138 0c2.71220398 0 3.05090332.01330566 4.11929321.06097412.82980347.01702881 1.65071106.174469 2.42781067.46569824.6639862.25683594 1.26699829.6491394 1.77049255 1.15182495.50360108.50268555.89649964 1.1046753 1.15370178 1.76754761zM10.89779663 16v-5.46490479h1.77700806l.26419067-2.13961792h-2.04119873V7.03259277c0-.61743164.165802-1.04016113 1.01989746-1.04016113H13v-1.9076538c-.52659607-.05853272-1.05589294-.086792-1.58540344-.08465577-1.57072449 0-2.6492157.99479675-2.6492157 2.82110596v1.57025146H7v2.13961792h1.7692871V16h2.12850953z"/>
</svg>
