<svg width="21" height="20" viewBox="0 0 21 20" fill="none" xmlns="http://www.w3.org/2000/svg">
<path fill-rule="evenodd" clip-rule="evenodd" d="M0.445068 2.5C0.445068 1.83696 0.708461 1.20107 1.1773 0.732233C1.64614 0.263392 2.28203 0 2.94507 0L17.9451 0C18.6081 0 19.244 0.263392 19.7128 0.732233C20.1817 1.20107 20.4451 1.83696 20.4451 2.5V17.5C20.4451 18.163 20.1817 18.7989 19.7128 19.2678C19.244 19.7366 18.6081 20 17.9451 20H2.94507C2.28203 20 1.64614 19.7366 1.1773 19.2678C0.708461 18.7989 0.445068 18.163 0.445068 17.5V2.5ZM11.6076 8.235L8.74507 8.59375L8.64257 9.06875L9.20507 9.1725C9.57257 9.26 9.64507 9.3925 9.56507 9.75875L8.64257 14.0937C8.40007 15.215 8.77382 15.7425 9.65257 15.7425C10.3338 15.7425 11.1251 15.4275 11.4838 14.995L11.5938 14.475C11.3438 14.695 10.9788 14.7825 10.7363 14.7825C10.3926 14.7825 10.2676 14.5413 10.3563 14.1163L11.6076 8.235ZM10.4451 6.875C10.7766 6.875 11.0945 6.7433 11.329 6.50888C11.5634 6.27446 11.6951 5.95652 11.6951 5.625C11.6951 5.29348 11.5634 4.97554 11.329 4.74112C11.0945 4.5067 10.7766 4.375 10.4451 4.375C10.1135 4.375 9.79561 4.5067 9.56119 4.74112C9.32676 4.97554 9.19507 5.29348 9.19507 5.625C9.19507 5.95652 9.32676 6.27446 9.56119 6.50888C9.79561 6.7433 10.1135 6.875 10.4451 6.875Z" fill="#254500"/>
</svg>
