<svg width="20" height="20" viewBox="0 0 20 20" fill="none" xmlns="http://www.w3.org/2000/svg">
<path fill-rule="evenodd" clip-rule="evenodd" d="M19.9355 5.90311C19.9244 5.06332 19.767 4.23193 19.4702 3.44604C19.213 2.78317 18.8201 2.18118 18.3164 1.6785C17.813 1.17581 17.21 0.783508 16.5459 0.526672C15.769 0.235443 14.948 0.0780029 14.1182 0.0609741C13.0498 0.0133057 12.7109 0 9.99878 0C7.28687 0 6.93921 0 5.87842 0.0609741C5.04907 0.078125 4.22852 0.235565 3.4519 0.526672C2.7876 0.783325 2.18457 1.17557 1.68115 1.67828C1.17749 2.18097 0.784668 2.78308 0.527588 3.44604C0.235352 4.22122 0.0778809 5.04059 0.0622559 5.86871C0.0144043 6.93646 0 7.27466 0 9.98227C0 12.6899 0 13.0358 0.0622559 14.0958C0.0788574 14.9252 0.235352 15.7434 0.527588 16.5207C0.785156 17.1835 1.17822 17.7853 1.68188 18.2878C2.18555 18.7903 2.78882 19.1824 3.45288 19.439C4.22754 19.7419 5.0481 19.9106 5.87964 19.9379C6.94922 19.9856 7.28784 20 10 20C12.7122 20 13.0598 20 14.1204 19.9379C14.9502 19.9216 15.7712 19.7645 16.5481 19.4733C17.2119 19.2162 17.8149 18.8238 18.3184 18.3211C18.8218 17.8185 19.2148 17.2166 19.4724 16.554C19.7645 15.7778 19.9211 14.9595 19.9377 14.1291C19.9856 13.0624 20 12.7242 20 10.0155V9.97821C19.9978 7.30472 19.9974 6.95929 19.9355 5.90311ZM15.875 6.95401C15.8105 6.86539 15.7246 6.79294 15.6245 6.74292L15.6064 6.73413L15.5886 6.72617C15.5691 6.71771 15.5491 6.71011 15.5286 6.70343C15.5054 6.6958 15.4819 6.68936 15.4583 6.68408C15.4065 6.67258 15.3533 6.66669 15.2996 6.66666H5.73291L4.92529 4.82001C4.81934 4.57681 4.63989 4.36905 4.40991 4.22308C4.17993 4.07709 3.90942 3.99945 3.63306 4H2V5.33334H3.63306L6.95386 12.9233C7.00684 13.0448 7.09668 13.1485 7.21167 13.2215C7.2644 13.2549 7.32153 13.2812 7.3811 13.2999C7.42847 13.3148 7.47778 13.3249 7.52759 13.3298C7.53931 13.3309 7.55103 13.3318 7.56274 13.3324C7.57495 13.333 7.5874 13.3333 7.59985 13.3333H13.1997C13.4917 13.3333 13.7527 13.1607 13.8555 12.9013L15.9556 7.56799C15.9768 7.51385 15.9905 7.45752 15.9966 7.40039C16.0017 7.35104 16.001 7.30112 15.9946 7.25156C15.9895 7.21289 15.981 7.17484 15.969 7.13785C15.9478 7.07257 15.9163 7.01053 15.875 6.95401ZM7.94995 16C8.52979 16 8.99976 15.5523 8.99976 15C8.99976 14.4477 8.52979 14 7.94995 14C7.36987 14 6.8999 14.4477 6.8999 15C6.8999 15.5523 7.36987 16 7.94995 16ZM13.8997 15C13.8997 15.5523 13.4297 16 12.8496 16C12.2698 16 11.7998 15.5523 11.7998 15C11.7998 14.4477 12.2698 14 12.8496 14C13.4297 14 13.8997 14.4477 13.8997 15Z" fill="#254500"/>
</svg>
