<svg width="148" height="61" viewBox="0 0 148 61" fill="none" xmlns="http://www.w3.org/2000/svg">
<mask id="path-1-inside-1" fill="white">
<path d="M45.4576 58.4155L40.8966 57.6553L32.4278 57.4099C31.1906 57.374 30.041 58.0455 29.4645 59.1408L29.02 59.9853C28.9338 60.1492 28.79 60.2754 28.6163 60.3398L28.0887 60.5352C27.6391 60.7017 27.2177 60.2318 27.4322 59.803C27.4875 59.6923 27.5023 59.5658 27.4739 59.4454L27.2789 58.6165C27.2368 58.4374 27.1338 58.2784 26.9876 58.1666L26.5679 57.8456C26.2767 57.623 25.8534 57.7933 25.7977 58.1556C25.7795 58.2739 25.718 58.3813 25.625 58.4568L25.0891 58.8923C24.7397 59.1761 24.3139 59.3499 23.8656 59.3916L21.4268 59.6185C21.3326 59.6273 21.2407 59.6523 21.1551 59.6926L21.027 59.7529C20.5456 59.9794 19.9922 59.6282 19.9922 59.0962C19.9922 58.9037 19.9157 58.7191 19.7796 58.583L19.3353 58.1386C19.1232 57.9265 18.8355 57.8074 18.5355 57.8074H18.1428C17.846 57.8074 17.5884 58.0122 17.5217 58.3015L17.4756 58.501C17.4358 58.6734 17.2823 58.7956 17.1054 58.7956C16.8674 58.7956 16.688 58.5794 16.7319 58.3455L16.7837 58.0693C16.8314 57.8147 16.6361 57.5793 16.3771 57.5793C16.1486 57.5793 15.9634 57.3941 15.9634 57.1656V56.2726C15.9634 55.9867 15.7316 55.7549 15.4457 55.7549C15.292 55.7549 15.1463 55.8232 15.048 55.9412L14.8843 56.1376C14.6159 56.4597 14.1831 56.594 13.7795 56.4805L12.6914 56.1745C12.2445 56.0488 11.8357 55.8142 11.5017 55.4917L9.96903 54.0119C9.86488 53.9113 9.80606 53.7728 9.80606 53.628V53.4706C9.80606 53.2628 9.6376 53.0944 9.4298 53.0944C9.33001 53.0944 9.23431 53.134 9.16374 53.2046L8.87901 53.4893C8.65084 53.7175 8.32373 53.8165 8.00732 53.7532L7.67453 53.6867C7.30622 53.613 7.07739 53.2428 7.17622 52.8804C7.2059 52.7715 7.26348 52.6723 7.34326 52.5925L8.25496 51.6808C8.40953 51.5263 8.44785 51.2901 8.35009 51.0946C8.26406 50.9226 8.08822 50.8139 7.89586 50.8139H6.24936C6.03058 50.8139 5.85323 50.6365 5.85323 50.4178C5.85323 50.2853 5.78704 50.1616 5.67684 50.0882L5.51116 49.9777C5.29745 49.8352 5.16909 49.5954 5.16909 49.3385V48.8878C5.16909 48.8037 5.17567 48.7197 5.18879 48.6367L5.34515 47.6464C5.37934 47.4299 5.46346 47.2243 5.59087 47.0459L5.97783 46.5042C6.08586 46.3529 6.08912 46.1507 5.98603 45.996C5.90306 45.8716 5.76339 45.7968 5.61383 45.7968H2.74593C2.68923 45.7968 2.63274 45.7899 2.57773 45.7761L2.42903 45.739C2.2077 45.6836 2.05243 45.4848 2.05243 45.2566C2.05243 45.1165 2.11152 44.983 2.21517 44.8887L2.85657 44.3056C2.87697 44.2871 2.88861 44.2608 2.88861 44.2332C2.88861 44.1751 2.83827 44.1298 2.78047 44.1359L2.2774 44.1888C1.88273 44.2304 1.57395 43.8552 1.69066 43.4759L1.71788 43.3874C1.73806 43.3218 1.76909 43.2601 1.80966 43.2047L2.47367 42.2993C2.54571 42.201 2.58454 42.0824 2.58454 41.9606C2.58454 41.6443 2.32815 41.3879 2.01186 41.3879H1.92632C1.80978 41.3879 1.69532 41.4188 1.59466 41.4776L1.03346 41.8049C0.906144 41.8792 0.756479 41.9055 0.611462 41.8792C0.274306 41.8179 0.0513802 41.494 0.114533 41.1571L0.184656 40.7832C0.213191 40.631 0.276798 40.4875 0.37043 40.3642L2.82707 37.1286C3.14703 36.7072 3.21594 36.1464 3.00751 35.6601L2.9929 35.626C2.92409 35.4654 2.88861 35.2926 2.88861 35.1179C2.88861 34.6685 3.12247 34.2515 3.5059 34.0172L3.90082 33.7759C4.13368 33.6336 4.40129 33.5583 4.67419 33.5583H5.94464C6.06209 33.5583 6.15729 33.4631 6.15729 33.3456C6.15729 33.2474 6.09002 33.1619 5.99454 33.1389L4.36233 32.7449C4.09985 32.6816 3.87267 32.5178 3.72956 32.2888C3.62709 32.1249 3.57275 31.9354 3.57275 31.7421V30.2091C3.57275 29.9614 3.52124 29.7164 3.42148 29.4897L2.91489 28.3383C2.81502 28.1114 2.91079 27.846 3.13258 27.7351C3.26583 27.6685 3.42294 27.6697 3.55512 27.7384L3.81745 27.8748C4.4886 28.2238 5.29668 27.7661 5.34245 27.011L5.38357 26.3325C5.39256 26.1842 5.42377 26.0379 5.47615 25.8988L7.81087 19.6972C7.82337 19.664 7.83848 19.6319 7.85608 19.6011C8.16269 19.0645 8.97076 19.1956 9.09196 19.8016L9.16176 20.1506C9.18512 20.2674 9.24893 20.3723 9.34196 20.4467C9.63004 20.6772 10.06 20.532 10.1495 20.1741L10.2938 19.5969C10.3231 19.4797 10.3759 19.3698 10.4492 19.2737L14.4816 13.9853C14.7292 13.6606 15.2185 13.6625 15.4635 13.9892L16.065 14.7912C16.2273 15.0075 16.5715 14.8928 16.5715 14.6224C16.5715 14.5319 16.615 14.4469 16.6884 14.394L17.1657 14.0504C17.3828 13.8941 17.642 14.1769 17.4778 14.388C17.4342 14.4441 17.4211 14.5187 17.4436 14.586C17.4952 14.7409 17.6951 14.782 17.8036 14.6599L18.5285 13.8445C18.615 13.7471 18.7759 13.8083 18.7759 13.9386C18.7759 14.0454 18.8897 14.1138 18.984 14.0636L21.0158 12.9843C21.1436 12.9164 21.2804 12.867 21.4221 12.8377L23.2532 12.4589C23.3584 12.4371 23.4671 12.4385 23.5718 12.4629L24.9145 12.7762C25.1675 12.8352 25.1988 13.1827 24.9623 13.2902C24.8956 13.3206 24.844 13.3775 24.8209 13.4471L24.8039 13.4981C24.7553 13.6437 24.8637 13.7941 25.0172 13.7941C25.0616 13.7941 25.105 13.781 25.1419 13.7563L25.4928 13.5224C25.6559 13.4137 25.8717 13.4283 26.0187 13.558L26.4773 13.9626C26.6556 14.12 26.9304 13.9529 26.8727 13.7221C26.849 13.6276 26.8844 13.528 26.9623 13.4695L27.5255 13.0471C27.6708 12.9382 27.8372 12.8608 28.0142 12.82L28.4582 12.7175C28.6403 12.6755 28.8289 12.6697 29.0133 12.7004L29.6492 12.8064C29.916 12.8509 30.179 12.7093 30.2889 12.4622C30.363 12.2953 30.5099 12.1719 30.6871 12.1276L30.9524 12.0613C31.1807 12.0042 31.4223 12.0669 31.5939 12.2279L32.1616 12.7601C32.4028 12.9862 32.5573 13.2896 32.5983 13.6176L32.6118 13.7259C32.659 14.1035 32.8825 14.4363 33.2141 14.6228C33.6322 14.8579 34.1501 14.8215 34.5311 14.5302L35.0764 14.1131C35.1549 14.0532 35.245 14.0102 35.3411 13.9872L36.6193 13.6804C36.7892 13.6396 36.9209 13.8284 36.824 13.9738L36.809 13.9963C36.7977 14.0132 36.7917 14.033 36.7917 14.0532C36.7917 14.1479 36.9091 14.192 36.9715 14.1208L37.551 13.4585C37.716 13.2699 38.0062 13.2602 38.1834 13.4374L38.9767 14.2308C39.0379 14.2919 39.0722 14.3748 39.0722 14.4612C39.0722 14.7693 39.4602 14.9054 39.6527 14.6649L40.8087 13.2198C41.0178 12.9585 41.4076 12.9369 41.6443 13.1735C41.7496 13.2788 41.8088 13.4217 41.8088 13.5706V14.6787C41.8088 15.2955 42.1747 15.8536 42.7403 16.0995C43.2461 16.3194 43.5968 16.7916 43.6612 17.3393L43.7998 18.5174C43.8348 18.815 44.087 19.0392 44.3866 19.0392C44.4415 19.0392 44.4961 19.0316 44.5489 19.0165L45.0959 18.8602C45.3856 18.7774 45.6872 18.7437 45.9881 18.7604L46.4288 18.7849C46.7356 18.8019 47.0283 18.9195 47.2616 19.1195L47.284 19.1387C47.3833 19.2239 47.4683 19.3244 47.5356 19.4366L47.7063 19.7211C47.8203 19.9111 48.0257 20.0274 48.2473 20.0274H48.5771C48.7434 20.0274 48.8783 20.1622 48.8783 20.3285C48.8783 20.4258 48.8313 20.5171 48.7522 20.5736L48.3098 20.8896C47.9945 21.1148 47.5979 21.1945 47.2199 21.1087L46.2808 20.8952C46.1928 20.8752 46.1004 20.8957 46.0291 20.9512C45.8176 21.1157 45.91 21.4537 46.1757 21.4878L48.3634 21.7683C48.4025 21.7733 48.4411 21.7818 48.4787 21.7936L48.5554 21.8179C49.0675 21.9796 49.1516 22.6688 48.6933 22.9488L48.5782 23.0191C48.5265 23.0507 48.4877 23.0996 48.4685 23.157C48.4398 23.2432 48.4587 23.3382 48.5184 23.4067L49.2606 24.2603C49.6681 24.7289 50.3292 24.8852 50.9035 24.6488L51.1896 24.531C51.2193 24.5187 51.2455 24.4995 51.266 24.4748L51.3473 24.3773C51.4379 24.2686 51.6148 24.3327 51.6148 24.4742C51.6148 24.4993 51.6086 24.5239 51.5968 24.546L50.2685 27.0128C50.1188 27.2907 50.1615 27.6329 50.3748 27.8656L50.573 28.0818C50.7305 28.2537 50.7247 28.5191 50.5599 28.684C50.5041 28.7398 50.4342 28.7794 50.3576 28.7985L49.9303 28.9053C49.8882 28.9159 49.8444 28.9179 49.8014 28.9113C49.496 28.8643 49.3022 29.2285 49.5118 29.4556L49.6989 29.6583C49.7585 29.7228 49.8366 29.7672 49.9226 29.7853L50.916 29.9944C51.1279 30.039 51.3439 30.0615 51.5605 30.0615H52.2721C52.2898 30.0615 52.3072 30.0574 52.3231 30.0495L52.4232 29.9994C52.5059 29.9581 52.5879 30.0564 52.5325 30.1303C52.5289 30.1351 52.5248 30.1395 52.5202 30.1435L50.1815 32.1988C50.0764 32.2911 49.9414 32.342 49.8016 32.342H49.2359C49.018 32.342 48.8881 32.5848 49.0089 32.7661C49.0231 32.7873 49.0402 32.8065 49.0597 32.823L49.5543 33.2415C49.7127 33.3755 49.6179 33.6343 49.4104 33.6343H48.5959C48.5313 33.6343 48.4671 33.623 48.4063 33.6009L47.9169 33.4229C47.793 33.3778 47.662 33.4696 47.662 33.6014C47.662 33.6231 47.6658 33.6448 47.6731 33.6653L48.0421 34.6985C48.1936 35.3552 48.2701 36.0269 48.2701 36.7009V37.8152V38.261L48.1454 38.6454H48.7262L49.1698 37.365L49.4104 34.804L50.1942 37.8771L51.4746 35.3162V39.1576L49.4104 40.9503H47.8893L49.0303 42.9075L50.207 43.6243C51.6332 44.4932 51.5257 46.598 50.0185 47.3172L49.7144 47.5452V48.0773C50.827 48.224 51.4637 49.4232 50.9618 50.427L50.7063 50.9379C51.6138 52.1479 50.692 53.8702 49.1823 53.7785V55.907L47.586 57.6553L45.4576 58.4155Z"/>
</mask>
<path d="M45.4576 58.4155L40.8966 57.6553L32.4278 57.4099C31.1906 57.374 30.041 58.0455 29.4645 59.1408L29.02 59.9853C28.9338 60.1492 28.79 60.2754 28.6163 60.3398L28.0887 60.5352C27.6391 60.7017 27.2177 60.2318 27.4322 59.803C27.4875 59.6923 27.5023 59.5658 27.4739 59.4454L27.2789 58.6165C27.2368 58.4374 27.1338 58.2784 26.9876 58.1666L26.5679 57.8456C26.2767 57.623 25.8534 57.7933 25.7977 58.1556C25.7795 58.2739 25.718 58.3813 25.625 58.4568L25.0891 58.8923C24.7397 59.1761 24.3139 59.3499 23.8656 59.3916L21.4268 59.6185C21.3326 59.6273 21.2407 59.6523 21.1551 59.6926L21.027 59.7529C20.5456 59.9794 19.9922 59.6282 19.9922 59.0962C19.9922 58.9037 19.9157 58.7191 19.7796 58.583L19.3353 58.1386C19.1232 57.9265 18.8355 57.8074 18.5355 57.8074H18.1428C17.846 57.8074 17.5884 58.0122 17.5217 58.3015L17.4756 58.501C17.4358 58.6734 17.2823 58.7956 17.1054 58.7956C16.8674 58.7956 16.688 58.5794 16.7319 58.3455L16.7837 58.0693C16.8314 57.8147 16.6361 57.5793 16.3771 57.5793C16.1486 57.5793 15.9634 57.3941 15.9634 57.1656V56.2726C15.9634 55.9867 15.7316 55.7549 15.4457 55.7549C15.292 55.7549 15.1463 55.8232 15.048 55.9412L14.8843 56.1376C14.6159 56.4597 14.1831 56.594 13.7795 56.4805L12.6914 56.1745C12.2445 56.0488 11.8357 55.8142 11.5017 55.4917L9.96903 54.0119C9.86488 53.9113 9.80606 53.7728 9.80606 53.628V53.4706C9.80606 53.2628 9.6376 53.0944 9.4298 53.0944C9.33001 53.0944 9.23431 53.134 9.16374 53.2046L8.87901 53.4893C8.65084 53.7175 8.32373 53.8165 8.00732 53.7532L7.67453 53.6867C7.30622 53.613 7.07739 53.2428 7.17622 52.8804C7.2059 52.7715 7.26348 52.6723 7.34326 52.5925L8.25496 51.6808C8.40953 51.5263 8.44785 51.2901 8.35009 51.0946C8.26406 50.9226 8.08822 50.8139 7.89586 50.8139H6.24936C6.03058 50.8139 5.85323 50.6365 5.85323 50.4178C5.85323 50.2853 5.78704 50.1616 5.67684 50.0882L5.51116 49.9777C5.29745 49.8352 5.16909 49.5954 5.16909 49.3385V48.8878C5.16909 48.8037 5.17567 48.7197 5.18879 48.6367L5.34515 47.6464C5.37934 47.4299 5.46346 47.2243 5.59087 47.0459L5.97783 46.5042C6.08586 46.3529 6.08912 46.1507 5.98603 45.996C5.90306 45.8716 5.76339 45.7968 5.61383 45.7968H2.74593C2.68923 45.7968 2.63274 45.7899 2.57773 45.7761L2.42903 45.739C2.2077 45.6836 2.05243 45.4848 2.05243 45.2566C2.05243 45.1165 2.11152 44.983 2.21517 44.8887L2.85657 44.3056C2.87697 44.2871 2.88861 44.2608 2.88861 44.2332C2.88861 44.1751 2.83827 44.1298 2.78047 44.1359L2.2774 44.1888C1.88273 44.2304 1.57395 43.8552 1.69066 43.4759L1.71788 43.3874C1.73806 43.3218 1.76909 43.2601 1.80966 43.2047L2.47367 42.2993C2.54571 42.201 2.58454 42.0824 2.58454 41.9606C2.58454 41.6443 2.32815 41.3879 2.01186 41.3879H1.92632C1.80978 41.3879 1.69532 41.4188 1.59466 41.4776L1.03346 41.8049C0.906144 41.8792 0.756479 41.9055 0.611462 41.8792C0.274306 41.8179 0.0513802 41.494 0.114533 41.1571L0.184656 40.7832C0.213191 40.631 0.276798 40.4875 0.37043 40.3642L2.82707 37.1286C3.14703 36.7072 3.21594 36.1464 3.00751 35.6601L2.9929 35.626C2.92409 35.4654 2.88861 35.2926 2.88861 35.1179C2.88861 34.6685 3.12247 34.2515 3.5059 34.0172L3.90082 33.7759C4.13368 33.6336 4.40129 33.5583 4.67419 33.5583H5.94464C6.06209 33.5583 6.15729 33.4631 6.15729 33.3456C6.15729 33.2474 6.09002 33.1619 5.99454 33.1389L4.36233 32.7449C4.09985 32.6816 3.87267 32.5178 3.72956 32.2888C3.62709 32.1249 3.57275 31.9354 3.57275 31.7421V30.2091C3.57275 29.9614 3.52124 29.7164 3.42148 29.4897L2.91489 28.3383C2.81502 28.1114 2.91079 27.846 3.13258 27.7351C3.26583 27.6685 3.42294 27.6697 3.55512 27.7384L3.81745 27.8748C4.4886 28.2238 5.29668 27.7661 5.34245 27.011L5.38357 26.3325C5.39256 26.1842 5.42377 26.0379 5.47615 25.8988L7.81087 19.6972C7.82337 19.664 7.83848 19.6319 7.85608 19.6011C8.16269 19.0645 8.97076 19.1956 9.09196 19.8016L9.16176 20.1506C9.18512 20.2674 9.24893 20.3723 9.34196 20.4467C9.63004 20.6772 10.06 20.532 10.1495 20.1741L10.2938 19.5969C10.3231 19.4797 10.3759 19.3698 10.4492 19.2737L14.4816 13.9853C14.7292 13.6606 15.2185 13.6625 15.4635 13.9892L16.065 14.7912C16.2273 15.0075 16.5715 14.8928 16.5715 14.6224C16.5715 14.5319 16.615 14.4469 16.6884 14.394L17.1657 14.0504C17.3828 13.8941 17.642 14.1769 17.4778 14.388C17.4342 14.4441 17.4211 14.5187 17.4436 14.586C17.4952 14.7409 17.6951 14.782 17.8036 14.6599L18.5285 13.8445C18.615 13.7471 18.7759 13.8083 18.7759 13.9386C18.7759 14.0454 18.8897 14.1138 18.984 14.0636L21.0158 12.9843C21.1436 12.9164 21.2804 12.867 21.4221 12.8377L23.2532 12.4589C23.3584 12.4371 23.4671 12.4385 23.5718 12.4629L24.9145 12.7762C25.1675 12.8352 25.1988 13.1827 24.9623 13.2902C24.8956 13.3206 24.844 13.3775 24.8209 13.4471L24.8039 13.4981C24.7553 13.6437 24.8637 13.7941 25.0172 13.7941C25.0616 13.7941 25.105 13.781 25.1419 13.7563L25.4928 13.5224C25.6559 13.4137 25.8717 13.4283 26.0187 13.558L26.4773 13.9626C26.6556 14.12 26.9304 13.9529 26.8727 13.7221C26.849 13.6276 26.8844 13.528 26.9623 13.4695L27.5255 13.0471C27.6708 12.9382 27.8372 12.8608 28.0142 12.82L28.4582 12.7175C28.6403 12.6755 28.8289 12.6697 29.0133 12.7004L29.6492 12.8064C29.916 12.8509 30.179 12.7093 30.2889 12.4622C30.363 12.2953 30.5099 12.1719 30.6871 12.1276L30.9524 12.0613C31.1807 12.0042 31.4223 12.0669 31.5939 12.2279L32.1616 12.7601C32.4028 12.9862 32.5573 13.2896 32.5983 13.6176L32.6118 13.7259C32.659 14.1035 32.8825 14.4363 33.2141 14.6228C33.6322 14.8579 34.1501 14.8215 34.5311 14.5302L35.0764 14.1131C35.1549 14.0532 35.245 14.0102 35.3411 13.9872L36.6193 13.6804C36.7892 13.6396 36.9209 13.8284 36.824 13.9738L36.809 13.9963C36.7977 14.0132 36.7917 14.033 36.7917 14.0532C36.7917 14.1479 36.9091 14.192 36.9715 14.1208L37.551 13.4585C37.716 13.2699 38.0062 13.2602 38.1834 13.4374L38.9767 14.2308C39.0379 14.2919 39.0722 14.3748 39.0722 14.4612C39.0722 14.7693 39.4602 14.9054 39.6527 14.6649L40.8087 13.2198C41.0178 12.9585 41.4076 12.9369 41.6443 13.1735C41.7496 13.2788 41.8088 13.4217 41.8088 13.5706V14.6787C41.8088 15.2955 42.1747 15.8536 42.7403 16.0995C43.2461 16.3194 43.5968 16.7916 43.6612 17.3393L43.7998 18.5174C43.8348 18.815 44.087 19.0392 44.3866 19.0392C44.4415 19.0392 44.4961 19.0316 44.5489 19.0165L45.0959 18.8602C45.3856 18.7774 45.6872 18.7437 45.9881 18.7604L46.4288 18.7849C46.7356 18.8019 47.0283 18.9195 47.2616 19.1195L47.284 19.1387C47.3833 19.2239 47.4683 19.3244 47.5356 19.4366L47.7063 19.7211C47.8203 19.9111 48.0257 20.0274 48.2473 20.0274H48.5771C48.7434 20.0274 48.8783 20.1622 48.8783 20.3285C48.8783 20.4258 48.8313 20.5171 48.7522 20.5736L48.3098 20.8896C47.9945 21.1148 47.5979 21.1945 47.2199 21.1087L46.2808 20.8952C46.1928 20.8752 46.1004 20.8957 46.0291 20.9512C45.8176 21.1157 45.91 21.4537 46.1757 21.4878L48.3634 21.7683C48.4025 21.7733 48.4411 21.7818 48.4787 21.7936L48.5554 21.8179C49.0675 21.9796 49.1516 22.6688 48.6933 22.9488L48.5782 23.0191C48.5265 23.0507 48.4877 23.0996 48.4685 23.157C48.4398 23.2432 48.4587 23.3382 48.5184 23.4067L49.2606 24.2603C49.6681 24.7289 50.3292 24.8852 50.9035 24.6488L51.1896 24.531C51.2193 24.5187 51.2455 24.4995 51.266 24.4748L51.3473 24.3773C51.4379 24.2686 51.6148 24.3327 51.6148 24.4742C51.6148 24.4993 51.6086 24.5239 51.5968 24.546L50.2685 27.0128C50.1188 27.2907 50.1615 27.6329 50.3748 27.8656L50.573 28.0818C50.7305 28.2537 50.7247 28.5191 50.5599 28.684C50.5041 28.7398 50.4342 28.7794 50.3576 28.7985L49.9303 28.9053C49.8882 28.9159 49.8444 28.9179 49.8014 28.9113C49.496 28.8643 49.3022 29.2285 49.5118 29.4556L49.6989 29.6583C49.7585 29.7228 49.8366 29.7672 49.9226 29.7853L50.916 29.9944C51.1279 30.039 51.3439 30.0615 51.5605 30.0615H52.2721C52.2898 30.0615 52.3072 30.0574 52.3231 30.0495L52.4232 29.9994C52.5059 29.9581 52.5879 30.0564 52.5325 30.1303C52.5289 30.1351 52.5248 30.1395 52.5202 30.1435L50.1815 32.1988C50.0764 32.2911 49.9414 32.342 49.8016 32.342H49.2359C49.018 32.342 48.8881 32.5848 49.0089 32.7661C49.0231 32.7873 49.0402 32.8065 49.0597 32.823L49.5543 33.2415C49.7127 33.3755 49.6179 33.6343 49.4104 33.6343H48.5959C48.5313 33.6343 48.4671 33.623 48.4063 33.6009L47.9169 33.4229C47.793 33.3778 47.662 33.4696 47.662 33.6014C47.662 33.6231 47.6658 33.6448 47.6731 33.6653L48.0421 34.6985C48.1936 35.3552 48.2701 36.0269 48.2701 36.7009V37.8152V38.261L48.1454 38.6454H48.7262L49.1698 37.365L49.4104 34.804L50.1942 37.8771L51.4746 35.3162V39.1576L49.4104 40.9503H47.8893L49.0303 42.9075L50.207 43.6243C51.6332 44.4932 51.5257 46.598 50.0185 47.3172L49.7144 47.5452V48.0773C50.827 48.224 51.4637 49.4232 50.9618 50.427L50.7063 50.9379C51.6138 52.1479 50.692 53.8702 49.1823 53.7785V55.907L47.586 57.6553L45.4576 58.4155Z" fill="#EB7575" stroke="white" mask="url(#path-1-inside-1)"/>
<path d="M18.3839 10.3371L15.0172 5.34577C14.402 4.43375 13.164 4.19311 12.252 4.80827C11.34 5.42343 11.0994 6.66145 11.7145 7.57347L15.133 12.6416C15.8483 13.7021 15.5685 15.1417 14.508 15.857L13.1995 16.7396C12.8617 16.9674 12.7726 17.426 13.0004 17.7638C13.2283 18.1016 13.6868 18.1907 14.0246 17.9629L14.1811 17.8574L20.2907 26.9153C20.4767 27.191 20.851 27.2638 21.1267 27.0778C21.4024 26.8918 21.4752 26.5175 21.2892 26.2418L15.1795 17.1839L16.2548 16.4586L22.3645 25.5165C22.5505 25.7922 22.9248 25.865 23.2005 25.679C23.4762 25.493 23.549 25.1188 23.363 24.843L17.2533 15.7851L18.4822 14.9562L24.566 23.9757C24.7663 24.2726 25.1693 24.351 25.4663 24.1507C25.7632 23.9504 25.8416 23.5473 25.6413 23.2504L19.5575 14.2309L20.556 13.5574L26.6398 22.5769C26.8401 22.8739 27.2431 22.9522 27.5401 22.7519C27.837 22.5516 27.9154 22.1486 27.7151 21.8516L21.6313 12.8321L22.7834 12.055L28.8672 21.0745C29.0675 21.3715 29.4705 21.4498 29.7675 21.2495C30.0644 21.0492 30.1428 20.6462 29.9425 20.3492L23.8587 11.3297L23.9383 11.276C24.2761 11.0482 24.3653 10.5896 24.1374 10.2518C23.9096 9.91398 23.451 9.82485 23.1132 10.0527L21.7279 10.9871C20.625 11.731 19.1278 11.44 18.3839 10.3371Z" fill="#EB7575" stroke="white" stroke-width="0.5"/>
<path d="M16.8254 23.2528L17.184 22.0977L18.2958 23.4409L18.4275 23.6L18.6086 23.5007L20.425 22.5048L20.5549 22.4337V22.2856V19.8838V18.2592H21.6586L23.0698 18.8799L24.2362 19.463L24.598 19.6439V19.2394V17.2903L26.0415 15.8006L26.4511 17.2568L26.5205 17.5033L26.7653 17.428L29.7279 16.5167L31.5445 17.2431L30.0704 18.2102L29.9575 18.2843V18.4193V19.7452L17.1041 27.7766L15.644 26.545L17.7317 25.3741L17.9501 25.2517L17.8273 25.0335L16.8254 23.2528Z" fill="#EB7575" stroke="white" stroke-width="0.5"/>
<rect x="15.2969" y="27.7402" width="20.5436" height="5.92925" transform="rotate(-35.5 15.2969 27.7402)" fill="#EB7575"/>
<path d="M72.3125 37V25.5469H80.0391V26.8984H73.8281V30.4453H79.2031V31.7969H73.8281V37H72.3125ZM81.8203 37V28.7031H83.0859V29.9609C83.4089 29.3724 83.7057 28.9844 83.9766 28.7969C84.2526 28.6094 84.5547 28.5156 84.8828 28.5156C85.3568 28.5156 85.8385 28.6667 86.3281 28.9688L85.8438 30.2734C85.5 30.0703 85.1562 29.9688 84.8125 29.9688C84.5052 29.9688 84.2292 30.0625 83.9844 30.25C83.7396 30.4323 83.5651 30.6875 83.4609 31.0156C83.3047 31.5156 83.2266 32.0625 83.2266 32.6562V37H81.8203ZM86.6406 32.8516C86.6406 31.3151 87.0677 30.1771 87.9219 29.4375C88.6354 28.8229 89.5052 28.5156 90.5312 28.5156C91.6719 28.5156 92.6042 28.8906 93.3281 29.6406C94.0521 30.3854 94.4141 31.4167 94.4141 32.7344C94.4141 33.8021 94.2526 34.6432 93.9297 35.2578C93.612 35.8672 93.1458 36.3411 92.5312 36.6797C91.9219 37.0182 91.2552 37.1875 90.5312 37.1875C89.3698 37.1875 88.4297 36.8151 87.7109 36.0703C86.9974 35.3255 86.6406 34.2526 86.6406 32.8516ZM88.0859 32.8516C88.0859 33.9141 88.3177 34.7109 88.7812 35.2422C89.2448 35.7682 89.8281 36.0312 90.5312 36.0312C91.2292 36.0312 91.8099 35.7656 92.2734 35.2344C92.737 34.7031 92.9688 33.8932 92.9688 32.8047C92.9688 31.7786 92.7344 31.0026 92.2656 30.4766C91.8021 29.9453 91.224 29.6797 90.5312 29.6797C89.8281 29.6797 89.2448 29.9427 88.7812 30.4688C88.3177 30.9948 88.0859 31.7891 88.0859 32.8516ZM95.9844 27.0625V25.4297H97.4922V26.7188C97.4922 27.4167 97.4115 27.9193 97.25 28.2266C97.026 28.6484 96.6771 28.9661 96.2031 29.1797L95.8594 28.625C96.1406 28.5104 96.349 28.3307 96.4844 28.0859C96.625 27.8359 96.7031 27.4948 96.7188 27.0625H95.9844ZM99.8594 37V25.5469H101.375V30.25H107.328V25.5469H108.844V37H107.328V31.6016H101.375V37H99.8594ZM110.672 32.8516C110.672 31.3151 111.099 30.1771 111.953 29.4375C112.667 28.8229 113.536 28.5156 114.562 28.5156C115.703 28.5156 116.635 28.8906 117.359 29.6406C118.083 30.3854 118.445 31.4167 118.445 32.7344C118.445 33.8021 118.284 34.6432 117.961 35.2578C117.643 35.8672 117.177 36.3411 116.562 36.6797C115.953 37.0182 115.286 37.1875 114.562 37.1875C113.401 37.1875 112.461 36.8151 111.742 36.0703C111.029 35.3255 110.672 34.2526 110.672 32.8516ZM112.117 32.8516C112.117 33.9141 112.349 34.7109 112.812 35.2422C113.276 35.7682 113.859 36.0312 114.562 36.0312C115.26 36.0312 115.841 35.7656 116.305 35.2344C116.768 34.7031 117 33.8932 117 32.8047C117 31.7786 116.766 31.0026 116.297 30.4766C115.833 29.9453 115.255 29.6797 114.562 29.6797C113.859 29.6797 113.276 29.9427 112.812 30.4688C112.349 30.9948 112.117 31.7891 112.117 32.8516ZM125.539 37V35.7812C124.893 36.7188 124.016 37.1875 122.906 37.1875C122.417 37.1875 121.958 37.0938 121.531 36.9062C121.109 36.7188 120.794 36.4844 120.586 36.2031C120.383 35.9167 120.24 35.5677 120.156 35.1562C120.099 34.8802 120.07 34.4427 120.07 33.8438V28.7031H121.477V33.3047C121.477 34.0391 121.505 34.5339 121.562 34.7891C121.651 35.1589 121.839 35.4505 122.125 35.6641C122.411 35.8724 122.766 35.9766 123.188 35.9766C123.609 35.9766 124.005 35.8698 124.375 35.6562C124.745 35.4375 125.005 35.1432 125.156 34.7734C125.312 34.3984 125.391 33.8568 125.391 33.1484V28.7031H126.797V37H125.539ZM128.445 34.5234L129.836 34.3047C129.914 34.862 130.13 35.2891 130.484 35.5859C130.844 35.8828 131.344 36.0312 131.984 36.0312C132.63 36.0312 133.109 35.901 133.422 35.6406C133.734 35.375 133.891 35.0651 133.891 34.7109C133.891 34.3932 133.753 34.1432 133.477 33.9609C133.284 33.8359 132.805 33.6771 132.039 33.4844C131.008 33.224 130.292 33 129.891 32.8125C129.495 32.6198 129.193 32.3568 128.984 32.0234C128.781 31.6849 128.68 31.3125 128.68 30.9062C128.68 30.5365 128.763 30.1953 128.93 29.8828C129.102 29.5651 129.333 29.3021 129.625 29.0938C129.844 28.9323 130.141 28.7969 130.516 28.6875C130.896 28.5729 131.302 28.5156 131.734 28.5156C132.385 28.5156 132.956 28.6094 133.445 28.7969C133.94 28.9844 134.305 29.2396 134.539 29.5625C134.773 29.8802 134.935 30.3073 135.023 30.8438L133.648 31.0312C133.586 30.6042 133.404 30.2708 133.102 30.0312C132.805 29.7917 132.383 29.6719 131.836 29.6719C131.19 29.6719 130.729 29.7786 130.453 29.9922C130.177 30.2057 130.039 30.4557 130.039 30.7422C130.039 30.9245 130.096 31.0885 130.211 31.2344C130.326 31.3854 130.505 31.5104 130.75 31.6094C130.891 31.6615 131.305 31.7812 131.992 31.9688C132.987 32.2344 133.68 32.4531 134.07 32.625C134.466 32.7917 134.776 33.0365 135 33.3594C135.224 33.6823 135.336 34.0833 135.336 34.5625C135.336 35.0312 135.198 35.474 134.922 35.8906C134.651 36.3021 134.258 36.6224 133.742 36.8516C133.227 37.0755 132.643 37.1875 131.992 37.1875C130.914 37.1875 130.091 36.9635 129.523 36.5156C128.961 36.0677 128.602 35.4036 128.445 34.5234ZM142.688 34.3281L144.141 34.5078C143.911 35.3568 143.487 36.0156 142.867 36.4844C142.247 36.9531 141.456 37.1875 140.492 37.1875C139.279 37.1875 138.315 36.8151 137.602 36.0703C136.893 35.3203 136.539 34.2708 136.539 32.9219C136.539 31.526 136.898 30.4427 137.617 29.6719C138.336 28.901 139.268 28.5156 140.414 28.5156C141.523 28.5156 142.43 28.8932 143.133 29.6484C143.836 30.4036 144.188 31.4661 144.188 32.8359C144.188 32.9193 144.185 33.0443 144.18 33.2109H137.992C138.044 34.1224 138.302 34.8203 138.766 35.3047C139.229 35.7891 139.807 36.0312 140.5 36.0312C141.016 36.0312 141.456 35.8958 141.82 35.625C142.185 35.3542 142.474 34.9219 142.688 34.3281ZM138.07 32.0547H142.703C142.641 31.3568 142.464 30.8333 142.172 30.4844C141.724 29.9427 141.143 29.6719 140.43 29.6719C139.784 29.6719 139.24 29.888 138.797 30.3203C138.359 30.7526 138.117 31.3307 138.07 32.0547Z" fill="#EB7575"/>
</svg>
