<svg width="168" height="81" viewBox="0 0 168 81" fill="none" xmlns="http://www.w3.org/2000/svg">
<mask id="path-1-inside-1" fill="white">
<path d="M60.6099 77.5535L54.5286 76.5399L43.2369 76.2126C41.5874 76.1648 40.0545 77.0602 39.2859 78.5205L38.6933 79.6466C38.5783 79.8651 38.3865 80.0334 38.155 80.1192L37.4515 80.3797C36.852 80.6018 36.2902 79.9752 36.5761 79.4034C36.6499 79.2559 36.6696 79.0872 36.6318 78.9267L36.3718 77.8215C36.3156 77.5827 36.1783 77.3706 35.9834 77.2216L35.4237 76.7936C35.0355 76.4968 34.4711 76.7239 34.3968 77.2069C34.3725 77.3647 34.2905 77.5079 34.1666 77.6085L33.452 78.1891C32.9861 78.5677 32.4184 78.7994 31.8207 78.855L28.569 79.1575C28.4434 79.1692 28.3208 79.2026 28.2067 79.2563L28.0359 79.3367C27.3941 79.6387 26.6562 79.1704 26.6562 78.4611C26.6562 78.2044 26.5542 77.9583 26.3727 77.7768L25.7803 77.1843C25.4975 76.9015 25.1139 76.7426 24.7139 76.7426H24.1903C23.7945 76.7426 23.4512 77.0158 23.3622 77.4014L23.3008 77.6675C23.2477 77.8974 23.043 78.0602 22.8071 78.0602C22.4898 78.0602 22.2506 77.772 22.3091 77.4602L22.3782 77.0918C22.4418 76.7523 22.1814 76.4386 21.836 76.4386C21.5314 76.4386 21.2844 76.1916 21.2844 75.8869V74.6963C21.2844 74.3151 20.9754 74.0061 20.5942 74.0061C20.3893 74.0061 20.195 74.097 20.0639 74.2544L19.8457 74.5162C19.4878 74.9458 18.9108 75.1248 18.3725 74.9735L16.9219 74.5655C16.3259 74.3979 15.7809 74.085 15.3355 73.655L13.292 71.682C13.1531 71.5479 13.0747 71.3632 13.0747 71.1701V70.9603C13.0747 70.6833 12.8501 70.4587 12.573 70.4587C12.44 70.4587 12.3124 70.5115 12.2183 70.6056L11.8386 70.9852C11.5344 71.2895 11.0983 71.4215 10.6764 71.3371L10.2327 71.2484C9.7416 71.1502 9.43649 70.6565 9.56826 70.1733C9.60784 70.0282 9.68461 69.8959 9.79098 69.7896L11.0066 68.574C11.2127 68.3679 11.2638 68.053 11.1334 67.7923C11.0187 67.5629 10.7843 67.418 10.5278 67.418H8.33245C8.04075 67.418 7.80428 67.1816 7.80428 66.8899C7.80428 66.7133 7.71602 66.5484 7.56909 66.4504L7.34819 66.3031C7.06324 66.1132 6.89209 65.7934 6.89209 65.4509V64.8499C6.89209 64.7378 6.90088 64.6258 6.91837 64.5151L7.12684 63.1947C7.17242 62.906 7.28459 62.6319 7.45446 62.3941L7.97042 61.6718C8.11445 61.4701 8.1188 61.2004 7.98134 60.9942C7.87072 60.8283 7.6845 60.7286 7.48508 60.7286H3.66123C3.58563 60.7286 3.51031 60.7194 3.43697 60.701L3.2387 60.6515C2.94359 60.5777 2.73657 60.3125 2.73657 60.0084C2.73657 59.8216 2.81536 59.6435 2.95356 59.5178L3.80874 58.7404C3.83595 58.7157 3.85146 58.6806 3.85146 58.6438C3.85146 58.5663 3.78435 58.5059 3.70729 58.514L3.03652 58.5846C2.5103 58.64 2.09859 58.1398 2.2542 57.634L2.2905 57.516C2.31741 57.4286 2.35877 57.3463 2.41288 57.2725L3.29822 56.0652C3.39426 55.9342 3.44605 55.7761 3.44605 55.6137C3.44605 55.192 3.10418 54.8501 2.68247 54.8501H2.56842C2.41303 54.8501 2.26042 54.8913 2.1262 54.9696L1.37794 55.4061C1.20819 55.5051 1.00864 55.5402 0.81528 55.5051C0.36574 55.4234 0.0685069 54.9915 0.15271 54.5424L0.246207 54.0438C0.284254 53.8408 0.369062 53.6496 0.493905 53.4852L3.76942 49.1711C4.19603 48.6092 4.2879 47.8615 4.01 47.213L3.99053 47.1676C3.89877 46.9535 3.85146 46.723 3.85146 46.4901C3.85146 45.8909 4.16327 45.3349 4.67452 45.0225L5.20108 44.7007C5.51156 44.511 5.86837 44.4106 6.23223 44.4106H7.92616C8.08276 44.4106 8.2097 44.2837 8.2097 44.1271C8.2097 43.9961 8.12 43.8822 7.99269 43.8514L5.81642 43.3261C5.46645 43.2417 5.16355 43.0233 4.97273 42.718C4.8361 42.4994 4.76365 42.2468 4.76365 41.989V39.9451C4.76365 39.6148 4.69496 39.2881 4.56195 38.9858L3.8865 37.4507C3.75335 37.1481 3.88105 36.7942 4.17676 36.6464C4.35443 36.5575 4.5639 36.5592 4.74014 36.6508L5.08991 36.8327C5.98478 37.2981 7.06222 36.6878 7.12324 35.681L7.17807 34.7763C7.19006 34.5785 7.23167 34.3835 7.30151 34.198L10.4145 25.9293C10.4311 25.885 10.4513 25.8421 10.4747 25.8011C10.8836 25.0857 11.961 25.2605 12.1226 26.0685L12.2156 26.5338C12.2468 26.6896 12.3319 26.8293 12.4559 26.9286C12.84 27.2359 13.4133 27.0424 13.5326 26.5651L13.725 25.7955C13.764 25.6393 13.8345 25.4927 13.9322 25.3646L19.3088 18.3134C19.6389 17.8804 20.2913 17.883 20.618 18.3186L21.42 19.3879C21.6363 19.6763 22.0952 19.5234 22.0952 19.1628C22.0952 19.0422 22.1533 18.9289 22.2512 18.8584L22.8875 18.4002C23.1769 18.1918 23.5226 18.5689 23.3037 18.8504C23.2456 18.9251 23.2281 19.0246 23.258 19.1144C23.3269 19.3209 23.5934 19.3756 23.7381 19.2129L24.7045 18.1256C24.8199 17.9959 25.0345 18.0775 25.0345 18.2511C25.0345 18.3935 25.1862 18.4847 25.3119 18.4179L28.0209 16.9787C28.1913 16.8882 28.3738 16.8224 28.5627 16.7833L31.0041 16.2782C31.1444 16.2491 31.2894 16.251 31.4289 16.2835L33.2192 16.7013C33.5565 16.78 33.5983 17.2433 33.283 17.3867C33.194 17.4271 33.1253 17.503 33.0944 17.5958L33.0717 17.6638C33.007 17.858 33.1515 18.0585 33.3561 18.0585C33.4153 18.0585 33.4732 18.041 33.5224 18.0081L33.9902 17.6963C34.2077 17.5513 34.4955 17.5707 34.6915 17.7437L35.3029 18.2831C35.5407 18.493 35.907 18.2702 35.8301 17.9625C35.7986 17.8364 35.8457 17.7037 35.9497 17.6257L36.7006 17.0625C36.8943 16.9173 37.1162 16.8141 37.3521 16.7597L37.9441 16.623C38.187 16.567 38.4384 16.5592 38.6842 16.6002L39.5322 16.7415C39.8879 16.8008 40.2386 16.6121 40.385 16.2826C40.4839 16.0601 40.6798 15.8955 40.916 15.8365L41.2698 15.748C41.5741 15.6719 41.8962 15.7556 42.1251 15.9701L42.882 16.6798C43.2036 16.9812 43.4096 17.3857 43.4642 17.8232L43.4823 17.9676C43.5452 18.471 43.8432 18.9147 44.2853 19.1634C44.8427 19.4769 45.5333 19.4284 46.0413 19.0399L46.7684 18.4839C46.873 18.4039 46.9932 18.3467 47.1212 18.3159L48.8256 17.9069C49.0521 17.8525 49.2277 18.1042 49.0985 18.298L49.0784 18.3281C49.0635 18.3506 49.0555 18.377 49.0555 18.404C49.0555 18.5302 49.212 18.5891 49.2952 18.494L50.0679 17.611C50.2879 17.3595 50.6748 17.3466 50.911 17.5829L51.9688 18.6407C52.0503 18.7222 52.0961 18.8327 52.0961 18.948C52.0961 19.3588 52.6134 19.5403 52.8701 19.2195L54.4114 17.2928C54.6902 16.9443 55.21 16.9155 55.5256 17.231C55.666 17.3715 55.7449 17.5619 55.7449 17.7605V19.238C55.7449 20.0604 56.2327 20.8044 56.9869 21.1323C57.6612 21.4255 58.1289 22.0551 58.2148 22.7854L58.3996 24.3562C58.4463 24.7529 58.7825 25.0519 59.1819 25.0519C59.2551 25.0519 59.328 25.0417 59.3983 25.0216L60.1276 24.8133C60.514 24.7029 60.9161 24.6579 61.3172 24.6802L61.9048 24.7128C62.3139 24.7355 62.7042 24.8923 63.0153 25.159L63.0452 25.1846C63.1776 25.2981 63.2908 25.4322 63.3805 25.5818L63.6081 25.9611C63.7602 26.2145 64.034 26.3695 64.3295 26.3695H64.7693C64.9911 26.3695 65.1708 26.5493 65.1708 26.771C65.1708 26.9007 65.1082 27.0224 65.0027 27.0978L64.4129 27.519C63.9924 27.8194 63.4636 27.9257 62.9597 27.8112L61.7075 27.5266C61.5901 27.4999 61.467 27.5273 61.3719 27.6012C61.0899 27.8205 61.2131 28.2712 61.5674 28.3167L64.4843 28.6906C64.5365 28.6973 64.5879 28.7086 64.638 28.7245L64.7403 28.7568C65.4231 28.9724 65.5352 29.8913 64.9242 30.2647L64.7708 30.3585C64.7018 30.4006 64.65 30.4657 64.6245 30.5424C64.5862 30.6573 64.6115 30.7839 64.6909 30.8753L65.6805 32.0133C66.2239 32.6382 67.1054 32.8466 67.871 32.5313L68.2526 32.3742C68.2921 32.3579 68.3271 32.3323 68.3545 32.2994L68.4628 32.1694C68.5836 32.0244 68.8196 32.1099 68.8196 32.2986C68.8196 32.332 68.8113 32.3648 68.7954 32.3942L67.0244 35.6833C66.8249 36.0539 66.8817 36.5102 67.1662 36.8205L67.4304 37.1087C67.6404 37.3379 67.6328 37.6918 67.413 37.9116C67.3386 37.986 67.2453 38.0388 67.1432 38.0643L66.5735 38.2067C66.5173 38.2208 66.4589 38.2235 66.4017 38.2146C65.9944 38.152 65.736 38.6376 66.0155 38.9404L66.265 39.2106C66.3444 39.2967 66.4486 39.3558 66.5632 39.38L67.8878 39.6588C68.1704 39.7183 68.4583 39.7483 68.7471 39.7483H69.6959C69.7195 39.7483 69.7427 39.7428 69.7639 39.7323L69.8974 39.6655C70.0076 39.6104 70.117 39.7414 70.0431 39.84C70.0382 39.8464 70.0328 39.8523 70.0267 39.8576L66.9084 42.598C66.7684 42.7211 66.5883 42.7889 66.4019 42.7889H65.6476C65.3572 42.7889 65.1839 43.1126 65.345 43.3543C65.3639 43.3827 65.3867 43.4082 65.4127 43.4302L66.0721 43.9882C66.2834 44.1669 66.157 44.512 65.8803 44.512H64.7943C64.7081 44.512 64.6226 44.4969 64.5416 44.4674L63.8889 44.2301C63.7238 44.17 63.5491 44.2923 63.5491 44.4681C63.5491 44.4971 63.5541 44.5259 63.5639 44.5533L64.0559 45.9309C64.258 46.8065 64.36 47.7022 64.36 48.6007V50.0864V50.6809L64.1937 51.1935H64.9681L65.5595 49.4862L65.8803 46.0716L66.9253 50.1691L68.6326 46.7545V51.8764L65.8803 54.2666H63.8522L65.3735 56.8762L66.9424 57.832C68.844 58.9905 68.7008 61.7968 66.6911 62.7557L66.2857 63.0598V63.7693C67.7692 63.9649 68.618 65.5638 67.9488 66.9022L67.6082 67.5833C68.8182 69.1966 67.5891 71.4931 65.5762 71.3708V74.2088L63.4478 76.5399L60.6099 77.5535Z"/>
</mask>
<path d="M60.6099 77.5535L54.5286 76.5399L43.2369 76.2126C41.5874 76.1648 40.0545 77.0602 39.2859 78.5205L38.6933 79.6466C38.5783 79.8651 38.3865 80.0334 38.155 80.1192L37.4515 80.3797C36.852 80.6018 36.2902 79.9752 36.5761 79.4034C36.6499 79.2559 36.6696 79.0872 36.6318 78.9267L36.3718 77.8215C36.3156 77.5827 36.1783 77.3706 35.9834 77.2216L35.4237 76.7936C35.0355 76.4968 34.4711 76.7239 34.3968 77.2069C34.3725 77.3647 34.2905 77.5079 34.1666 77.6085L33.452 78.1891C32.9861 78.5677 32.4184 78.7994 31.8207 78.855L28.569 79.1575C28.4434 79.1692 28.3208 79.2026 28.2067 79.2563L28.0359 79.3367C27.3941 79.6387 26.6562 79.1704 26.6562 78.4611C26.6562 78.2044 26.5542 77.9583 26.3727 77.7768L25.7803 77.1843C25.4975 76.9015 25.1139 76.7426 24.7139 76.7426H24.1903C23.7945 76.7426 23.4512 77.0158 23.3622 77.4014L23.3008 77.6675C23.2477 77.8974 23.043 78.0602 22.8071 78.0602C22.4898 78.0602 22.2506 77.772 22.3091 77.4602L22.3782 77.0918C22.4418 76.7523 22.1814 76.4386 21.836 76.4386C21.5314 76.4386 21.2844 76.1916 21.2844 75.8869V74.6963C21.2844 74.3151 20.9754 74.0061 20.5942 74.0061C20.3893 74.0061 20.195 74.097 20.0639 74.2544L19.8457 74.5162C19.4878 74.9458 18.9108 75.1248 18.3725 74.9735L16.9219 74.5655C16.3259 74.3979 15.7809 74.085 15.3355 73.655L13.292 71.682C13.1531 71.5479 13.0747 71.3632 13.0747 71.1701V70.9603C13.0747 70.6833 12.8501 70.4587 12.573 70.4587C12.44 70.4587 12.3124 70.5115 12.2183 70.6056L11.8386 70.9852C11.5344 71.2895 11.0983 71.4215 10.6764 71.3371L10.2327 71.2484C9.7416 71.1502 9.43649 70.6565 9.56826 70.1733C9.60784 70.0282 9.68461 69.8959 9.79098 69.7896L11.0066 68.574C11.2127 68.3679 11.2638 68.053 11.1334 67.7923C11.0187 67.5629 10.7843 67.418 10.5278 67.418H8.33245C8.04075 67.418 7.80428 67.1816 7.80428 66.8899C7.80428 66.7133 7.71602 66.5484 7.56909 66.4504L7.34819 66.3031C7.06324 66.1132 6.89209 65.7934 6.89209 65.4509V64.8499C6.89209 64.7378 6.90088 64.6258 6.91837 64.5151L7.12684 63.1947C7.17242 62.906 7.28459 62.6319 7.45446 62.3941L7.97042 61.6718C8.11445 61.4701 8.1188 61.2004 7.98134 60.9942C7.87072 60.8283 7.6845 60.7286 7.48508 60.7286H3.66123C3.58563 60.7286 3.51031 60.7194 3.43697 60.701L3.2387 60.6515C2.94359 60.5777 2.73657 60.3125 2.73657 60.0084C2.73657 59.8216 2.81536 59.6435 2.95356 59.5178L3.80874 58.7404C3.83595 58.7157 3.85146 58.6806 3.85146 58.6438C3.85146 58.5663 3.78435 58.5059 3.70729 58.514L3.03652 58.5846C2.5103 58.64 2.09859 58.1398 2.2542 57.634L2.2905 57.516C2.31741 57.4286 2.35877 57.3463 2.41288 57.2725L3.29822 56.0652C3.39426 55.9342 3.44605 55.7761 3.44605 55.6137C3.44605 55.192 3.10418 54.8501 2.68247 54.8501H2.56842C2.41303 54.8501 2.26042 54.8913 2.1262 54.9696L1.37794 55.4061C1.20819 55.5051 1.00864 55.5402 0.81528 55.5051C0.36574 55.4234 0.0685069 54.9915 0.15271 54.5424L0.246207 54.0438C0.284254 53.8408 0.369062 53.6496 0.493905 53.4852L3.76942 49.1711C4.19603 48.6092 4.2879 47.8615 4.01 47.213L3.99053 47.1676C3.89877 46.9535 3.85146 46.723 3.85146 46.4901C3.85146 45.8909 4.16327 45.3349 4.67452 45.0225L5.20108 44.7007C5.51156 44.511 5.86837 44.4106 6.23223 44.4106H7.92616C8.08276 44.4106 8.2097 44.2837 8.2097 44.1271C8.2097 43.9961 8.12 43.8822 7.99269 43.8514L5.81642 43.3261C5.46645 43.2417 5.16355 43.0233 4.97273 42.718C4.8361 42.4994 4.76365 42.2468 4.76365 41.989V39.9451C4.76365 39.6148 4.69496 39.2881 4.56195 38.9858L3.8865 37.4507C3.75335 37.1481 3.88105 36.7942 4.17676 36.6464C4.35443 36.5575 4.5639 36.5592 4.74014 36.6508L5.08991 36.8327C5.98478 37.2981 7.06222 36.6878 7.12324 35.681L7.17807 34.7763C7.19006 34.5785 7.23167 34.3835 7.30151 34.198L10.4145 25.9293C10.4311 25.885 10.4513 25.8421 10.4747 25.8011C10.8836 25.0857 11.961 25.2605 12.1226 26.0685L12.2156 26.5338C12.2468 26.6896 12.3319 26.8293 12.4559 26.9286C12.84 27.2359 13.4133 27.0424 13.5326 26.5651L13.725 25.7955C13.764 25.6393 13.8345 25.4927 13.9322 25.3646L19.3088 18.3134C19.6389 17.8804 20.2913 17.883 20.618 18.3186L21.42 19.3879C21.6363 19.6763 22.0952 19.5234 22.0952 19.1628C22.0952 19.0422 22.1533 18.9289 22.2512 18.8584L22.8875 18.4002C23.1769 18.1918 23.5226 18.5689 23.3037 18.8504C23.2456 18.9251 23.2281 19.0246 23.258 19.1144C23.3269 19.3209 23.5934 19.3756 23.7381 19.2129L24.7045 18.1256C24.8199 17.9959 25.0345 18.0775 25.0345 18.2511C25.0345 18.3935 25.1862 18.4847 25.3119 18.4179L28.0209 16.9787C28.1913 16.8882 28.3738 16.8224 28.5627 16.7833L31.0041 16.2782C31.1444 16.2491 31.2894 16.251 31.4289 16.2835L33.2192 16.7013C33.5565 16.78 33.5983 17.2433 33.283 17.3867C33.194 17.4271 33.1253 17.503 33.0944 17.5958L33.0717 17.6638C33.007 17.858 33.1515 18.0585 33.3561 18.0585C33.4153 18.0585 33.4732 18.041 33.5224 18.0081L33.9902 17.6963C34.2077 17.5513 34.4955 17.5707 34.6915 17.7437L35.3029 18.2831C35.5407 18.493 35.907 18.2702 35.8301 17.9625C35.7986 17.8364 35.8457 17.7037 35.9497 17.6257L36.7006 17.0625C36.8943 16.9173 37.1162 16.8141 37.3521 16.7597L37.9441 16.623C38.187 16.567 38.4384 16.5592 38.6842 16.6002L39.5322 16.7415C39.8879 16.8008 40.2386 16.6121 40.385 16.2826C40.4839 16.0601 40.6798 15.8955 40.916 15.8365L41.2698 15.748C41.5741 15.6719 41.8962 15.7556 42.1251 15.9701L42.882 16.6798C43.2036 16.9812 43.4096 17.3857 43.4642 17.8232L43.4823 17.9676C43.5452 18.471 43.8432 18.9147 44.2853 19.1634C44.8427 19.4769 45.5333 19.4284 46.0413 19.0399L46.7684 18.4839C46.873 18.4039 46.9932 18.3467 47.1212 18.3159L48.8256 17.9069C49.0521 17.8525 49.2277 18.1042 49.0985 18.298L49.0784 18.3281C49.0635 18.3506 49.0555 18.377 49.0555 18.404C49.0555 18.5302 49.212 18.5891 49.2952 18.494L50.0679 17.611C50.2879 17.3595 50.6748 17.3466 50.911 17.5829L51.9688 18.6407C52.0503 18.7222 52.0961 18.8327 52.0961 18.948C52.0961 19.3588 52.6134 19.5403 52.8701 19.2195L54.4114 17.2928C54.6902 16.9443 55.21 16.9155 55.5256 17.231C55.666 17.3715 55.7449 17.5619 55.7449 17.7605V19.238C55.7449 20.0604 56.2327 20.8044 56.9869 21.1323C57.6612 21.4255 58.1289 22.0551 58.2148 22.7854L58.3996 24.3562C58.4463 24.7529 58.7825 25.0519 59.1819 25.0519C59.2551 25.0519 59.328 25.0417 59.3983 25.0216L60.1276 24.8133C60.514 24.7029 60.9161 24.6579 61.3172 24.6802L61.9048 24.7128C62.3139 24.7355 62.7042 24.8923 63.0153 25.159L63.0452 25.1846C63.1776 25.2981 63.2908 25.4322 63.3805 25.5818L63.6081 25.9611C63.7602 26.2145 64.034 26.3695 64.3295 26.3695H64.7693C64.9911 26.3695 65.1708 26.5493 65.1708 26.771C65.1708 26.9007 65.1082 27.0224 65.0027 27.0978L64.4129 27.519C63.9924 27.8194 63.4636 27.9257 62.9597 27.8112L61.7075 27.5266C61.5901 27.4999 61.467 27.5273 61.3719 27.6012C61.0899 27.8205 61.2131 28.2712 61.5674 28.3167L64.4843 28.6906C64.5365 28.6973 64.5879 28.7086 64.638 28.7245L64.7403 28.7568C65.4231 28.9724 65.5352 29.8913 64.9242 30.2647L64.7708 30.3585C64.7018 30.4006 64.65 30.4657 64.6245 30.5424C64.5862 30.6573 64.6115 30.7839 64.6909 30.8753L65.6805 32.0133C66.2239 32.6382 67.1054 32.8466 67.871 32.5313L68.2526 32.3742C68.2921 32.3579 68.3271 32.3323 68.3545 32.2994L68.4628 32.1694C68.5836 32.0244 68.8196 32.1099 68.8196 32.2986C68.8196 32.332 68.8113 32.3648 68.7954 32.3942L67.0244 35.6833C66.8249 36.0539 66.8817 36.5102 67.1662 36.8205L67.4304 37.1087C67.6404 37.3379 67.6328 37.6918 67.413 37.9116C67.3386 37.986 67.2453 38.0388 67.1432 38.0643L66.5735 38.2067C66.5173 38.2208 66.4589 38.2235 66.4017 38.2146C65.9944 38.152 65.736 38.6376 66.0155 38.9404L66.265 39.2106C66.3444 39.2967 66.4486 39.3558 66.5632 39.38L67.8878 39.6588C68.1704 39.7183 68.4583 39.7483 68.7471 39.7483H69.6959C69.7195 39.7483 69.7427 39.7428 69.7639 39.7323L69.8974 39.6655C70.0076 39.6104 70.117 39.7414 70.0431 39.84C70.0382 39.8464 70.0328 39.8523 70.0267 39.8576L66.9084 42.598C66.7684 42.7211 66.5883 42.7889 66.4019 42.7889H65.6476C65.3572 42.7889 65.1839 43.1126 65.345 43.3543C65.3639 43.3827 65.3867 43.4082 65.4127 43.4302L66.0721 43.9882C66.2834 44.1669 66.157 44.512 65.8803 44.512H64.7943C64.7081 44.512 64.6226 44.4969 64.5416 44.4674L63.8889 44.2301C63.7238 44.17 63.5491 44.2923 63.5491 44.4681C63.5491 44.4971 63.5541 44.5259 63.5639 44.5533L64.0559 45.9309C64.258 46.8065 64.36 47.7022 64.36 48.6007V50.0864V50.6809L64.1937 51.1935H64.9681L65.5595 49.4862L65.8803 46.0716L66.9253 50.1691L68.6326 46.7545V51.8764L65.8803 54.2666H63.8522L65.3735 56.8762L66.9424 57.832C68.844 58.9905 68.7008 61.7968 66.6911 62.7557L66.2857 63.0598V63.7693C67.7692 63.9649 68.618 65.5638 67.9488 66.9022L67.6082 67.5833C68.8182 69.1966 67.5891 71.4931 65.5762 71.3708V74.2088L63.4478 76.5399L60.6099 77.5535Z" fill="#EB7575" stroke="white" stroke-width="2" mask="url(#path-1-inside-1)"/>
<path d="M24.5132 13.4486L20.0243 6.79348C19.2041 5.57747 17.5534 5.2566 16.3374 6.07682C15.1213 6.89703 14.8005 8.54772 15.6207 9.76374L20.1787 16.5212C21.1324 17.9352 20.7593 19.8546 19.3454 20.8084L17.6007 21.9852C17.1503 22.289 17.0314 22.9004 17.3352 23.3508C17.639 23.8012 18.2504 23.9201 18.7009 23.6163L18.9094 23.4756L27.0556 35.5528C27.3035 35.9204 27.8026 36.0174 28.1702 35.7694C28.5378 35.5215 28.6349 35.0224 28.3869 34.6548L20.2407 22.5776L21.6744 21.6105L29.8206 33.6877C30.0686 34.0554 30.5676 34.1524 30.9353 33.9044C31.3029 33.6564 31.3999 33.1574 31.1519 32.7897L23.0058 20.7126L24.6443 19.6073L32.7559 31.6333C33.023 32.0292 33.5604 32.1337 33.9563 31.8667C34.3522 31.5996 34.4567 31.0622 34.1897 30.6663L26.078 18.6403L27.4093 17.7423L35.521 29.7683C35.788 30.1642 36.3254 30.2687 36.7214 30.0016C37.1173 29.7346 37.2217 29.1971 36.9547 28.8012L28.8431 16.7752L30.3792 15.7391L38.4908 27.7651C38.7579 28.161 39.2953 28.2655 39.6912 27.9984C40.0871 27.7314 40.1916 27.1939 39.9246 26.798L31.8129 14.772L31.9191 14.7005C32.3695 14.3966 32.4883 13.7852 32.1845 13.3348C31.8807 12.8844 31.2693 12.7656 30.8189 13.0694L28.9718 14.3153C27.5013 15.3071 25.5051 14.9191 24.5132 13.4486Z" fill="#EB7575" stroke="white"/>
<path d="M23.7212 33.6442L24.1579 33.3992L23.9124 32.9629L22.6117 30.6511L22.9772 29.4737L24.2634 31.0274L24.5268 31.3456L24.8889 31.147L27.3109 29.8192L27.5705 29.6769V29.3808V26.1784V24.1789H28.8405L30.6862 24.9908L32.2377 25.7664L32.9613 26.1281V25.3192V22.7879L34.6373 21.0582L35.1051 22.7208L35.2438 23.2139L35.7334 23.0633L39.6273 21.8655L41.6978 22.6935L39.9997 23.8076L39.774 23.9557V24.2257V25.9012L22.8175 36.4964L21.1474 35.0877L23.7212 33.6442Z" fill="#EB7575" stroke="white"/>
<rect x="20.3945" y="36.6523" width="27.3914" height="7.90564" transform="rotate(-35.5 20.3945 36.6523)" fill="#EB7575"/>
<path d="M95.3125 47V35.5469H103.039V36.8984H96.8281V40.4453H102.203V41.7969H96.8281V47H95.3125ZM104.82 47V38.7031H106.086V39.9609C106.409 39.3724 106.706 38.9844 106.977 38.7969C107.253 38.6094 107.555 38.5156 107.883 38.5156C108.357 38.5156 108.839 38.6667 109.328 38.9688L108.844 40.2734C108.5 40.0703 108.156 39.9688 107.812 39.9688C107.505 39.9688 107.229 40.0625 106.984 40.25C106.74 40.4323 106.565 40.6875 106.461 41.0156C106.305 41.5156 106.227 42.0625 106.227 42.6562V47H104.82ZM109.641 42.8516C109.641 41.3151 110.068 40.1771 110.922 39.4375C111.635 38.8229 112.505 38.5156 113.531 38.5156C114.672 38.5156 115.604 38.8906 116.328 39.6406C117.052 40.3854 117.414 41.4167 117.414 42.7344C117.414 43.8021 117.253 44.6432 116.93 45.2578C116.612 45.8672 116.146 46.3411 115.531 46.6797C114.922 47.0182 114.255 47.1875 113.531 47.1875C112.37 47.1875 111.43 46.8151 110.711 46.0703C109.997 45.3255 109.641 44.2526 109.641 42.8516ZM111.086 42.8516C111.086 43.9141 111.318 44.7109 111.781 45.2422C112.245 45.7682 112.828 46.0312 113.531 46.0312C114.229 46.0312 114.81 45.7656 115.273 45.2344C115.737 44.7031 115.969 43.8932 115.969 42.8047C115.969 41.7786 115.734 41.0026 115.266 40.4766C114.802 39.9453 114.224 39.6797 113.531 39.6797C112.828 39.6797 112.245 39.9427 111.781 40.4688C111.318 40.9948 111.086 41.7891 111.086 42.8516ZM118.984 37.0625V35.4297H120.492V36.7188C120.492 37.4167 120.411 37.9193 120.25 38.2266C120.026 38.6484 119.677 38.9661 119.203 39.1797L118.859 38.625C119.141 38.5104 119.349 38.3307 119.484 38.0859C119.625 37.8359 119.703 37.4948 119.719 37.0625H118.984ZM122.859 47V35.5469H124.375V40.25H130.328V35.5469H131.844V47H130.328V41.6016H124.375V47H122.859ZM133.672 42.8516C133.672 41.3151 134.099 40.1771 134.953 39.4375C135.667 38.8229 136.536 38.5156 137.562 38.5156C138.703 38.5156 139.635 38.8906 140.359 39.6406C141.083 40.3854 141.445 41.4167 141.445 42.7344C141.445 43.8021 141.284 44.6432 140.961 45.2578C140.643 45.8672 140.177 46.3411 139.562 46.6797C138.953 47.0182 138.286 47.1875 137.562 47.1875C136.401 47.1875 135.461 46.8151 134.742 46.0703C134.029 45.3255 133.672 44.2526 133.672 42.8516ZM135.117 42.8516C135.117 43.9141 135.349 44.7109 135.812 45.2422C136.276 45.7682 136.859 46.0312 137.562 46.0312C138.26 46.0312 138.841 45.7656 139.305 45.2344C139.768 44.7031 140 43.8932 140 42.8047C140 41.7786 139.766 41.0026 139.297 40.4766C138.833 39.9453 138.255 39.6797 137.562 39.6797C136.859 39.6797 136.276 39.9427 135.812 40.4688C135.349 40.9948 135.117 41.7891 135.117 42.8516ZM148.539 47V45.7812C147.893 46.7188 147.016 47.1875 145.906 47.1875C145.417 47.1875 144.958 47.0938 144.531 46.9062C144.109 46.7188 143.794 46.4844 143.586 46.2031C143.383 45.9167 143.24 45.5677 143.156 45.1562C143.099 44.8802 143.07 44.4427 143.07 43.8438V38.7031H144.477V43.3047C144.477 44.0391 144.505 44.5339 144.562 44.7891C144.651 45.1589 144.839 45.4505 145.125 45.6641C145.411 45.8724 145.766 45.9766 146.188 45.9766C146.609 45.9766 147.005 45.8698 147.375 45.6562C147.745 45.4375 148.005 45.1432 148.156 44.7734C148.312 44.3984 148.391 43.8568 148.391 43.1484V38.7031H149.797V47H148.539ZM151.445 44.5234L152.836 44.3047C152.914 44.862 153.13 45.2891 153.484 45.5859C153.844 45.8828 154.344 46.0312 154.984 46.0312C155.63 46.0312 156.109 45.901 156.422 45.6406C156.734 45.375 156.891 45.0651 156.891 44.7109C156.891 44.3932 156.753 44.1432 156.477 43.9609C156.284 43.8359 155.805 43.6771 155.039 43.4844C154.008 43.224 153.292 43 152.891 42.8125C152.495 42.6198 152.193 42.3568 151.984 42.0234C151.781 41.6849 151.68 41.3125 151.68 40.9062C151.68 40.5365 151.763 40.1953 151.93 39.8828C152.102 39.5651 152.333 39.3021 152.625 39.0938C152.844 38.9323 153.141 38.7969 153.516 38.6875C153.896 38.5729 154.302 38.5156 154.734 38.5156C155.385 38.5156 155.956 38.6094 156.445 38.7969C156.94 38.9844 157.305 39.2396 157.539 39.5625C157.773 39.8802 157.935 40.3073 158.023 40.8438L156.648 41.0312C156.586 40.6042 156.404 40.2708 156.102 40.0312C155.805 39.7917 155.383 39.6719 154.836 39.6719C154.19 39.6719 153.729 39.7786 153.453 39.9922C153.177 40.2057 153.039 40.4557 153.039 40.7422C153.039 40.9245 153.096 41.0885 153.211 41.2344C153.326 41.3854 153.505 41.5104 153.75 41.6094C153.891 41.6615 154.305 41.7812 154.992 41.9688C155.987 42.2344 156.68 42.4531 157.07 42.625C157.466 42.7917 157.776 43.0365 158 43.3594C158.224 43.6823 158.336 44.0833 158.336 44.5625C158.336 45.0312 158.198 45.474 157.922 45.8906C157.651 46.3021 157.258 46.6224 156.742 46.8516C156.227 47.0755 155.643 47.1875 154.992 47.1875C153.914 47.1875 153.091 46.9635 152.523 46.5156C151.961 46.0677 151.602 45.4036 151.445 44.5234ZM165.688 44.3281L167.141 44.5078C166.911 45.3568 166.487 46.0156 165.867 46.4844C165.247 46.9531 164.456 47.1875 163.492 47.1875C162.279 47.1875 161.315 46.8151 160.602 46.0703C159.893 45.3203 159.539 44.2708 159.539 42.9219C159.539 41.526 159.898 40.4427 160.617 39.6719C161.336 38.901 162.268 38.5156 163.414 38.5156C164.523 38.5156 165.43 38.8932 166.133 39.6484C166.836 40.4036 167.188 41.4661 167.188 42.8359C167.188 42.9193 167.185 43.0443 167.18 43.2109H160.992C161.044 44.1224 161.302 44.8203 161.766 45.3047C162.229 45.7891 162.807 46.0312 163.5 46.0312C164.016 46.0312 164.456 45.8958 164.82 45.625C165.185 45.3542 165.474 44.9219 165.688 44.3281ZM161.07 42.0547H165.703C165.641 41.3568 165.464 40.8333 165.172 40.4844C164.724 39.9427 164.143 39.6719 163.43 39.6719C162.784 39.6719 162.24 39.888 161.797 40.3203C161.359 40.7526 161.117 41.3307 161.07 42.0547Z" fill="#EB7575"/>
</svg>
